<?xml version="1.0" encoding="UTF-8" standalone="no"?>
<!-- Created with Inkscape (http://www.inkscape.org/) -->

<svg
   version="1.1"
   id="svg1"
   width="1080"
   height="1080"
   viewBox="0 0 1080 1080"
   xmlns="http://www.w3.org/2000/svg"
   xmlns:svg="http://www.w3.org/2000/svg">
  <defs
     id="defs1" />
  <g
     id="g1">
    <path
       style="fill:#000000"
       d="M 296.4496,877.53874 C 263.15058,871.48968 234.1858,851.46255 216.70812,822.40306 206.85643,806.02302 201.97031,788.8014 201.27286,768 c -0.56293,-16.78962 0.96656,-27.92263 5.72139,-41.64533 21.5052,-62.0652 88.64912,-93.61 150.50575,-70.70891 42.61389,15.77688 72.1429,56.93114 74.15876,103.35424 2.86099,65.88581 -49.78482,120.39256 -115.81584,119.90975 -6.78861,-0.0496 -15.5156,-0.66659 -19.39332,-1.37101 z M 747.5,878.36577 c -7.38249,-1.12708 -23.26269,-5.71135 -29.81914,-8.60813 -14.52647,-6.41812 -26.43782,-14.69428 -37.29068,-25.91006 -29.94645,-30.94788 -39.91545,-74.35981 -26.70075,-116.27366 8.8071,-27.93405 31.70318,-54.28452 59.07348,-67.98608 33.61098,-16.82565 77.43053,-14.85855 110.192,4.94662 33.40819,20.19612 54.23601,55.48854 55.74884,94.46554 1.75193,45.13733 -21.88787,86.22469 -61.45282,106.80864 -17.64243,9.1786 -29.89719,12.2401 -50.75093,12.67866 -8.8,0.18506 -17.35,0.13037 -19,-0.12153 z M 297.75,600.3315 115,599.99464 115,539.99732 115,480 h 139.74811 139.7481 l -98.99643,-99.00022 -98.99642,-99.00021 42.7481,-42.74811 42.74811,-42.7481 99.00021,98.99642 L 480,394.49621 V 254.74811 115 h 60 60 v 139.74811 139.7481 l 99.00022,-98.99643 99.00021,-98.99642 42.74811,42.7481 42.7481,42.74811 -98.99642,99.00021 L 685.50379,480 H 825.25189 965 v 60 60 H 812.66542 c -83.78401,0 -192.79651,0.15038 -242.25,0.33418 -49.45348,0.1838 -172.15292,0.1826 -272.66542,-0.003 z"
       id="path1" />
  </g>
</svg>
