<?xml version="1.0" encoding="UTF-8" standalone="no"?>
<!-- Created with Inkscape (http://www.inkscape.org/) -->

<svg
   version="1.1"
   id="svg1"
   width="1080"
   height="1080"
   viewBox="0 0 1080 1080"
   xmlns="http://www.w3.org/2000/svg"
   xmlns:svg="http://www.w3.org/2000/svg">
  <defs
     id="defs1" />
  <g
     id="g1">
    <path
       style="fill:#e5e7ed"
       d="m 328,916.34395 c -55.01478,-8.44346 -95.52314,-47.46787 -104.56468,-100.73415 -1.99914,-11.77751 -1.52345,-33.99533 0.96581,-45.1098 9.5057,-42.44261 40.90173,-76.61544 82.13281,-89.39699 11.27127,-3.49407 26.81952,-6.09122 36.46606,-6.09122 15.49013,0 39.4447,5.88456 54.05034,13.27774 33.53052,16.97269 57.57543,49.11639 64.48925,86.21047 2.53293,13.58974 1.63657,38.56439 -1.85894,51.79396 -8.96257,33.92095 -31.96789,62.30902 -63.18065,77.96354 -9.74771,4.88888 -23.99921,9.49056 -34.83562,11.2481 -8.27329,1.34183 -27.29704,1.81558 -33.66438,0.83835 z m 389.43257,-0.83982 C 707.19046,913.70145 692.75453,908.87665 682.60066,903.86255 653.06618,889.2781 629.76886,860.4679 620.44586,827 c -3.58406,-12.86617 -4.56476,-38.73119 -1.99058,-52.5 9.59341,-51.31347 50.17182,-90.16144 102.4014,-98.03457 16.76456,-2.5271 32.09431,-1.31109 50.64332,4.01723 41.75536,11.99447 74.61714,47.17811 84.07684,90.01734 2.50416,11.34034 2.99053,33.31188 0.99734,45.05408 -7.22778,42.57989 -35.5436,77.62789 -75.07418,92.92331 -15.10596,5.84489 -24.22356,7.63842 -41,8.06513 -10.11117,0.25718 -17.62936,-0.0812 -23.06743,-1.03839 z M 130,540.16433 v -88.83567 l 70.66508,-0.66433 C 239.53087,450.29895 283.25035,450 297.81947,450 h 26.48931 L 265.86941,391.25 C 233.72775,358.9375 202.94578,327.83786 197.46502,322.13968 L 187.5,311.77936 250.46079,249.38968 C 285.08922,215.07536 313.73169,187 314.11072,187 c 0.37903,0 31.33418,30.88184 68.78921,68.62631 L 451,324.25263 V 227.12631 130 h 89 89 v 33.83511 c 0,18.60932 0.27599,62.14682 0.61331,96.75 l 0.6133,62.91489 68.1367,-68.32775 68.13669,-68.32774 62.70464,63.32761 62.70464,63.3276 -10.70464,11.00988 c -5.88755,6.05544 -36.45483,36.8805 -67.92729,68.50014 L 756.05469,450.5 853.02735,450.75495 950,451.0099 V 540.00495 629 H 540 130 Z"
       id="path1" />
  </g>
</svg>
